# xmcd
#
# Track frame offsets: 
#        183
#        17820
#        34670
#        53218
#        68880
#        86783
#        105573
#        123928
#        145583
#        165933
#        183033
#        203825
#        223473
#        241795
#        260910
#        278895
#        293160
#
# Disc length: 4238 seconds
#
# Revision: 3
# Processed by: cddbd v1.5.2PL0 Copyright (c) Steve Scherf et al.
# Submitted via: ExactAudioCopy v0.99pb5
#
DISCID=f7108c11
DTITLE=Various Artist - High Life - Da geht die Post ab! 
DYEAR=1986
DGENRE=Pop
TTITLE0=Status Quo - In the army now
TTITLE1=Madness - (Waiting for) the ghost train
TTITLE2=Berlin - Like flames
TTITLE3=Janet Jackson - Control
TTITLE4=Kinks - How are you
TTITLE5=Tina Turner - Two people
TTITLE6=Kool and The Gang - Victory
TTITLE7=Bob Geldof - This is the world calling
TTITLE8=Cutting Crew - I've been in love before
TTITLE9=Swing Out Sister - Breakout
TTITLE10=Chris De Burgh - Say goodbye to it all
TTITLE11=Commodores - Goin' to the bank
TTITLE12=Pet Shop Boys - Suburbia
TTITLE13=Barclay James Harvest - He said love
TTITLE14=OMD (Orchestral Manoeuvres In The Dark) - We love you
TTITLE15=Elton John and Cliff Richard - Slow rivers
TTITLE16=Falco - Coming Home (Jeanny Part 2, ein Jahr danach)
EXTD=
EXTT0=
EXTT1=
EXTT2=
EXTT3=
EXTT4=
EXTT5=
EXTT6=
EXTT7=
EXTT8=
EXTT9=
EXTT10=
EXTT11=
EXTT12=
EXTT13=
EXTT14=
EXTT15=
EXTT16=
PLAYORDER=
